<?xml version="1.0" standalone="no"?>
<!DOCTYPE svg PUBLIC "-//W3C//DTD SVG 20010904//EN"
 "http://www.w3.org/TR/2001/REC-SVG-20010904/DTD/svg10.dtd">
<svg version="1.0" xmlns="http://www.w3.org/2000/svg"
 width="1024.000000pt" height="1024.000000pt" viewBox="0 0 1024.000000 1024.000000"
 preserveAspectRatio="xMidYMid meet">

<g transform="translate(0.000000,1024.000000) scale(0.100000,-0.100000)"
fill="#000000" stroke="none">
<path d="M0 7403 l0 -2836 158 6 c182 8 294 29 432 83 88 34 130 58 130 74 0
3 -9 16 -19 27 -11 11 -25 40 -32 63 -7 23 -19 44 -26 47 -7 3 -13 11 -13 19
0 8 -4 14 -9 14 -9 0 -27 53 -51 145 -15 60 -22 188 -12 204 8 11 15 9 38 -13
50 -46 120 -86 206 -117 80 -29 87 -29 205 -23 88 5 132 3 155 -6 18 -7 70
-51 115 -99 78 -82 117 -105 75 -44 -31 45 -76 117 -85 133 -4 8 -16 29 -27
45 -11 17 -29 50 -40 75 -12 25 -26 56 -33 70 -6 14 -22 39 -34 56 -13 17 -23
34 -23 38 0 4 -5 12 -10 19 -6 7 -27 35 -48 63 -44 60 -101 130 -122 149 -33
31 -147 119 -183 142 -21 13 -35 27 -33 32 3 5 49 11 103 15 54 4 130 13 168
21 76 15 308 21 420 12 39 -4 88 -14 110 -23 70 -29 110 -49 113 -56 2 -5 8
-8 14 -8 6 0 26 -11 44 -25 18 -14 35 -25 37 -25 3 0 8 12 12 27 3 15 22 60
41 100 19 40 34 79 34 86 0 7 4 6 9 -3 5 -8 12 -78 16 -155 3 -77 10 -162 15
-190 4 -27 14 -131 20 -230 6 -99 16 -214 21 -255 37 -307 71 -543 85 -590 8
-30 22 -91 29 -135 8 -44 17 -86 20 -95 8 -20 77 -289 104 -410 13 -52 26
-106 31 -120 4 -14 22 -79 40 -145 18 -66 41 -138 51 -161 11 -22 19 -44 19
-48 0 -9 34 -87 60 -139 13 -24 18 -49 14 -65 -4 -20 -3 -23 5 -12 12 17 9 20
44 -53 29 -61 33 -87 17 -117 -5 -10 -10 -54 -11 -99 -1 -44 -5 -81 -9 -81
-13 0 -50 106 -50 141 0 18 -4 28 -10 24 -5 -3 -21 6 -34 21 l-23 28 -13 -23
c-10 -19 -9 -28 1 -48 11 -20 11 -26 -1 -33 -11 -7 -11 -10 -2 -10 7 0 17 -11
23 -23 9 -19 7 -32 -10 -63 -12 -21 -21 -42 -21 -47 0 -15 -60 -96 -100 -136
-21 -21 -52 -44 -69 -51 -17 -7 -31 -16 -31 -21 0 -5 -6 -9 -14 -9 -8 0 -16
-4 -18 -8 -6 -15 -113 -89 -136 -95 -21 -5 -28 7 -23 37 1 4 -4 25 -10 45 -7
20 -13 43 -14 51 -1 8 -5 22 -8 30 -3 8 -8 28 -12 44 -3 16 -23 46 -44 65 -25
23 -57 74 -90 143 -68 143 -97 141 -40 -3 10 -26 15 -50 12 -53 -4 -3 1 -6 10
-6 10 0 17 -7 17 -15 0 -8 5 -15 10 -15 6 0 10 -8 10 -19 0 -10 7 -24 15 -31
26 -21 17 -44 -37 -90 -28 -25 -72 -65 -97 -89 -38 -37 -261 -191 -276 -191
-30 0 -282 -228 -303 -274 -6 -14 -16 -26 -21 -26 -15 0 -22 41 -28 188 -3 78
-9 142 -13 142 -19 0 -35 -94 -36 -210 0 -119 -2 -128 -33 -195 -49 -107 -63
-139 -70 -155 -4 -8 -18 -49 -31 -90 -13 -41 -32 -100 -43 -130 -10 -30 -32
-98 -49 -150 -17 -52 -34 -99 -38 -105 -4 -5 -16 -45 -26 -88 -11 -49 -22 -76
-29 -73 -8 3 -10 -4 -7 -20 2 -13 1 -32 -3 -41 -4 -10 -9 -25 -11 -33 -1 -8
-15 -45 -30 -82 -19 -45 -35 -70 -48 -74 -12 -3 -42 -27 -68 -52 -30 -28 -51
-42 -57 -37 -16 18 -49 129 -61 208 -9 51 -11 136 -8 250 5 147 9 179 27 219
18 40 26 47 58 53 46 8 125 46 130 61 6 18 -57 22 -90 6 -25 -12 -56 -13 -201
-5 -94 5 -181 7 -193 5 l-23 -4 0 -514 c0 -305 4 -514 9 -514 14 0 94 35 209
92 56 28 104 49 107 46 3 -2 -14 -42 -37 -89 -22 -46 -50 -104 -60 -129 -11
-25 -26 -53 -35 -62 -14 -15 -17 -16 -38 -2 -13 9 -45 21 -72 29 -26 7 -56 16
-65 20 -17 7 -18 -3 -18 -131 0 -95 5 -155 15 -189 14 -45 14 -51 0 -61 -10
-8 -15 -29 -15 -68 l0 -56 1780 0 1779 0 7 36 c4 20 4 70 1 110 -6 79 7 102
17 32 4 -24 11 -61 16 -83 5 -22 11 -52 15 -67 l5 -28 145 0 144 0 11 43 c30
117 91 339 100 361 5 15 21 31 35 36 14 5 25 14 25 19 0 6 -7 8 -15 5 -11 -5
-10 6 6 53 12 32 25 63 31 70 5 7 7 17 4 22 -4 6 -3 18 3 28 5 10 20 59 34
108 14 50 34 115 45 145 11 30 37 111 56 180 65 226 139 453 211 643 14 37 25
77 25 89 0 18 -4 20 -31 14 -17 -3 -109 -40 -205 -81 -95 -41 -176 -75 -179
-75 -11 0 -4 28 9 39 16 14 56 86 56 102 0 25 55 64 170 120 136 66 297 126
308 115 4 -4 7 -89 7 -189 l0 -182 -41 -100 c-23 -55 -53 -125 -67 -155 -30
-67 -319 -930 -376 -1126 -50 -172 -71 -250 -71 -269 0 -20 56 -20 67 0 5 8
24 18 42 21 31 6 33 5 26 -15 -6 -20 -4 -21 90 -21 l96 0 -3 112 c-3 103 -5
113 -22 116 -20 4 -98 -11 -164 -30 -18 -6 -36 -8 -39 -5 -12 12 51 226 147
497 34 96 88 251 121 344 33 93 86 236 120 318 33 83 67 171 75 197 8 25 19
55 23 66 59 139 117 302 168 473 l28 94 35 -6 c19 -3 44 -6 55 -6 37 -1 47
-14 39 -55 -5 -30 -13 -40 -39 -51 -30 -12 -75 -57 -75 -73 0 -4 17 -25 39
-47 56 -59 105 -70 233 -55 55 7 102 10 104 8 3 -2 -4 -20 -15 -38 -11 -19
-28 -55 -37 -79 -22 -60 -42 -300 -33 -410 5 -63 -21 -663 -31 -735 -22 -148
-107 -465 -167 -620 -4 -11 2 -15 20 -15 19 0 27 8 37 33 35 93 63 164 71 179
5 10 9 25 9 33 0 8 7 15 16 15 12 0 15 6 11 21 -7 27 2 79 14 79 5 0 9 -27 9
-59 0 -43 -4 -60 -15 -65 -17 -6 -21 -36 -5 -36 6 0 10 -7 10 -15 0 -13 -4
-14 -20 -5 -17 9 -20 8 -20 -10 0 -11 5 -29 12 -39 9 -15 9 -25 1 -43 -11 -22
-12 -22 -12 9 -2 64 -16 39 -16 -28 l-1 -69 157 0 157 0 11 45 c6 25 14 105
17 178 3 72 10 155 15 182 11 60 10 270 -2 258 -4 -4 -10 -48 -12 -98 -3 -49
-10 -91 -15 -93 -7 -2 -7 -12 -1 -32 7 -19 7 -35 1 -47 -6 -10 -8 -30 -5 -44
6 -30 -14 -49 -28 -28 -5 8 -7 34 -4 59 4 30 0 59 -10 83 -10 25 -15 64 -14
117 2 77 3 80 26 80 31 0 29 14 -3 29 -25 11 -26 13 -21 85 3 41 2 127 -3 191
-7 101 -5 120 8 136 9 11 22 19 29 19 6 0 16 24 22 53 13 67 20 237 9 237 -7
0 0 60 9 70 8 9 21 -25 44 -118 20 -84 26 -96 49 -105 34 -13 48 -35 66 -104
8 -30 22 -62 31 -71 15 -15 16 -12 10 48 -4 36 -9 118 -11 183 -4 108 -3 117
14 117 12 0 22 -12 29 -33 21 -64 120 -507 160 -717 62 -318 119 -600 131
-642 8 -27 17 -38 30 -38 16 0 17 4 9 32 -13 49 -44 201 -84 413 -40 214 -78
398 -135 656 -51 230 -57 280 -36 301 9 9 16 30 16 46 0 34 -19 92 -30 92 -4
0 -10 26 -14 58 -6 61 -44 187 -70 239 -10 18 -31 44 -47 58 -34 28 -22 32 37
11 76 -26 146 -29 204 -7 61 23 90 47 90 73 0 37 18 16 34 -41 9 -32 31 -89
50 -127 18 -38 36 -82 40 -99 4 -16 23 -68 43 -115 88 -212 104 -252 143 -360
23 -63 46 -126 52 -140 6 -14 21 -54 33 -90 13 -36 43 -121 68 -190 156 -439
208 -602 196 -615 -2 -2 -33 3 -69 11 -36 8 -84 17 -107 21 -39 5 -43 3 -53
-21 -5 -15 -10 -65 -10 -112 0 -46 -4 -84 -9 -84 -5 0 -52 11 -103 25 -131 35
-168 31 -168 -17 0 -17 15 -18 236 -18 l235 0 -3 23 c-3 19 2 22 27 22 22 0
33 -6 40 -22 10 -23 10 -23 262 -23 231 0 252 1 257 18 3 9 10 44 16 77 16 98
28 148 40 175 8 20 9 11 5 -43 -3 -37 -8 -80 -11 -95 -2 -15 0 -34 6 -42 9
-13 11 -13 20 0 7 11 10 4 10 -27 0 -50 17 -67 22 -21 3 35 22 37 24 3 0 -11
1 -26 2 -32 2 -10 50 -13 202 -13 l199 0 11 43 c6 23 13 50 16 60 8 28 -15 20
-73 -24 -62 -48 -82 -45 -34 5 56 57 153 100 237 104 66 4 77 1 136 -29 34
-19 100 -62 146 -96 66 -49 91 -63 119 -63 l35 0 -41 76 c-85 158 -207 302
-319 378 -38 26 -78 56 -87 66 -10 11 -35 25 -55 30 -29 8 -42 19 -54 45 -9
19 -21 35 -26 35 -6 0 -10 5 -10 10 0 7 13 8 36 4 26 -5 35 -3 30 4 -9 15
-100 42 -140 42 -27 1 -29 2 -13 11 52 30 190 -23 271 -105 48 -48 77 -48 41
0 -8 10 -15 26 -15 35 0 19 -108 175 -144 210 -14 13 -26 28 -26 33 0 5 -6 14
-14 20 -7 6 -16 23 -20 39 -6 27 -6 27 23 15 30 -14 79 -69 203 -233 169 -223
226 -320 336 -575 53 -124 61 -135 86 -138 16 -2 32 0 37 5 9 9 -19 211 -45
323 -20 84 -20 158 -1 204 19 46 29 46 22 1 -3 -19 -3 -35 1 -35 4 0 7 -39 7
-87 0 -83 3 -93 41 -174 26 -54 59 -104 88 -132 34 -35 46 -54 46 -76 l0 -30
153 0 153 -1 17 29 c36 61 142 86 220 52 91 -39 101 -14 11 28 -24 12 -44 23
-44 25 0 6 111 66 121 66 4 0 5 -33 2 -74 -5 -62 -3 -78 13 -100 11 -14 27
-26 37 -26 21 0 21 1 2 47 -8 20 -15 66 -15 106 0 67 1 71 37 105 21 19 75 63
122 98 75 57 89 64 131 64 75 0 185 -68 236 -145 11 -17 28 -24 67 -28 28 -4
64 -9 79 -12 14 -3 37 -1 51 4 38 15 54 -2 31 -31 -40 -51 -169 -188 -177
-188 -5 0 -6 13 -2 29 11 52 14 107 5 121 -6 9 -10 1 -15 -26 -3 -21 -13 -60
-21 -86 -8 -26 -14 -49 -14 -52 0 -12 72 -6 84 7 42 42 178 211 192 239 9 18
30 44 46 58 36 30 58 70 58 106 0 24 -4 20 -26 -25 -42 -83 -133 -138 -208
-125 -85 15 -130 37 -178 88 -26 28 -51 62 -54 76 -4 14 -11 31 -17 38 -5 7
-8 42 -5 80 4 58 11 77 41 122 20 30 34 56 31 59 -3 3 -8 1 -12 -6 -69 -108
-295 -312 -486 -439 -32 -22 -77 -51 -100 -66 -22 -15 -61 -35 -86 -44 -25 -9
-60 -23 -78 -31 -71 -31 -146 -44 -237 -40 -49 2 -98 7 -108 12 -11 4 -23 3
-29 -3 -14 -14 -91 69 -133 141 -24 44 -29 63 -28 117 1 98 30 220 52 220 12
0 41 -58 41 -79 0 -12 -7 -24 -15 -27 -8 -4 -15 -11 -15 -16 0 -6 7 -7 15 -4
8 3 22 9 30 12 8 3 15 1 15 -5 0 -6 -5 -10 -12 -9 -7 2 -12 -5 -13 -15 0 -10
-6 -21 -13 -26 -23 -14 79 -39 149 -36 135 6 286 94 544 315 91 78 110 98 221
225 59 68 144 196 164 249 12 33 -9 36 -29 5 -13 -21 -15 -20 -83 52 -39 41
-58 58 -44 39 15 -19 34 -46 43 -60 9 -14 25 -35 36 -47 24 -27 19 -43 -39
-129 -62 -93 -63 -94 -207 -232 -182 -175 -370 -310 -500 -360 -101 -38 -104
-37 -191 89 -68 98 -116 173 -116 183 0 2 28 13 63 26 34 12 92 38 128 56 36
19 69 34 73 34 11 0 145 101 206 156 180 161 231 216 283 297 36 55 11 34 -58
-50 -38 -46 -92 -104 -120 -127 -101 -86 -282 -214 -365 -259 -103 -55 -192
-86 -198 -69 -2 7 -8 12 -14 12 -6 0 -8 -6 -5 -13 4 -10 -3 -12 -25 -9 -20 3
-33 -1 -42 -13 -10 -15 -27 -16 -114 -13 -118 4 -128 10 -137 83 l-7 50 109 1
c97 1 118 5 205 37 91 34 223 103 278 147 43 34 1 22 -79 -23 -138 -78 -300
-124 -464 -132 l-66 -3 -21 35 c-23 39 -25 53 -9 53 26 0 169 76 259 137 166
112 179 123 329 272 152 151 235 248 291 339 54 89 26 69 -36 -25 -62 -94
-281 -328 -343 -365 -20 -12 -42 -28 -49 -35 -7 -7 -20 -13 -27 -13 -17 0 -38
36 -30 51 4 5 2 15 -3 22 -5 7 -8 41 -7 77 3 76 -3 92 -21 59 -9 -17 -13 -19
-14 -8 0 9 7 22 15 29 18 15 17 110 0 103 -6 -2 -9 -20 -7 -40 3 -27 0 -40
-13 -49 -16 -12 -16 -19 -5 -76 6 -35 13 -75 14 -90 2 -15 9 -34 16 -43 11
-13 9 -15 -14 -15 -33 0 -62 29 -86 86 -17 38 -23 44 -50 44 -17 0 -41 -5 -52
-11 -18 -10 -20 -9 -15 5 4 9 3 16 -1 16 -5 0 -19 14 -32 32 -21 29 -22 32 -6
43 21 16 66 -2 59 -22 -4 -10 -9 -11 -19 -2 -11 9 -14 9 -14 0 0 -6 7 -14 15
-17 8 -4 12 -10 9 -15 -6 -10 79 -12 113 -3 21 6 23 11 20 65 -2 32 -6 61 -9
65 -12 11 -83 24 -138 24 -30 0 -69 4 -86 9 -17 5 -49 6 -71 2 -35 -7 -43 -5
-59 15 -26 31 -32 30 -36 -8 -2 -18 -7 -32 -13 -30 -9 2 -9 42 -1 99 2 10 8
19 14 19 26 3 26 6 2 17 -24 11 -24 11 14 15 21 2 45 1 53 -3 14 -5 14 -8 -2
-25 -16 -18 -16 -18 3 -13 11 2 23 0 26 -6 5 -7 -2 -11 -16 -11 -13 0 -29 -5
-35 -11 -26 -26 36 -50 81 -33 33 13 14 23 -31 17 -35 -5 -44 -3 -38 6 4 7 18
11 32 8 28 -5 43 17 24 36 -6 6 -11 21 -11 33 0 26 -27 35 -85 27 l-42 -5 -12
-72 c-20 -112 -21 -116 -32 -116 -8 0 -9 11 -4 33 4 17 7 67 6 110 -1 48 2 84
10 93 14 17 90 18 222 4 117 -12 377 -18 371 -8 -3 5 -40 8 -82 8 -94 1 -382
28 -382 36 0 2 60 63 134 136 128 128 206 229 264 345 40 78 38 169 -2 112
l-15 -21 -33 20 c-43 27 -73 75 -55 90 17 15 164 62 192 62 13 0 47 -16 76
-35 36 -25 55 -33 63 -25 9 9 76 8 239 -5 34 -3 57 -1 57 5 0 6 -8 10 -18 10
-10 0 -21 2 -24 5 -3 3 -68 7 -144 9 -136 3 -140 4 -188 35 -28 17 -59 31 -69
31 -21 0 -140 -41 -195 -67 -32 -15 -36 -15 -65 2 l-32 18 25 -29 c13 -16 56
-59 95 -96 71 -68 77 -96 8 -35 -21 19 -60 48 -88 66 -45 30 -43 26 29 -41 50
-47 77 -79 72 -86 -4 -7 -1 -12 8 -12 20 0 21 -24 1 -44 -8 -8 -15 -21 -15
-28 0 -8 -19 -33 -42 -55 -37 -36 -48 -41 -78 -38 -19 2 -71 8 -115 13 -44 5
-109 21 -144 35 -36 14 -68 24 -72 22 -4 -3 -10 2 -13 10 -3 8 -9 14 -13 13
-11 -3 -139 57 -362 169 -160 81 -195 102 -263 165 -43 40 -78 78 -78 84 0 11
-21 36 -195 229 -139 154 -150 168 -175 210 -81 137 -171 248 -223 274 -64 32
-47 -1 131 -258 116 -169 227 -310 372 -476 19 -22 74 -81 122 -130 79 -82 96
-94 170 -124 46 -18 199 -89 340 -156 141 -68 281 -128 310 -134 29 -6 83 -10
120 -9 36 2 69 0 73 -4 9 -9 -31 -66 -68 -97 -16 -14 -34 -30 -41 -36 -59 -56
-151 -124 -175 -130 -17 -3 -41 -21 -55 -39 -21 -27 -36 -35 -88 -46 -34 -6
-74 -21 -88 -32 l-25 -20 35 7 c19 4 39 11 45 16 12 12 25 11 25 -1 0 -5 -6
-10 -14 -10 -7 0 -19 -7 -27 -16 -7 -9 -33 -25 -57 -36 -42 -20 -45 -20 -105
-4 -34 9 -91 30 -127 46 -36 16 -96 38 -135 50 -38 11 -83 27 -100 35 -16 7
-91 38 -165 68 -219 89 -224 92 -347 183 -219 162 -263 196 -272 212 -11 20
-114 19 -224 -2 -72 -14 -213 -69 -316 -123 -24 -13 -48 -23 -52 -23 -5 0 -43
19 -85 43 -63 35 -81 51 -105 92 -16 28 -29 57 -29 66 0 11 26 28 73 49 81 36
320 171 412 234 66 44 125 95 125 108 0 16 -38 7 -74 -17 -33 -23 -42 -24 -76
-15 -21 6 -58 14 -81 19 -24 5 -146 29 -270 55 -125 25 -246 46 -270 46 -37 0
-48 5 -83 43 -65 68 -92 178 -62 252 13 30 23 36 88 57 106 33 172 29 373 -20
223 -55 320 -70 435 -70 113 0 146 11 184 66 24 35 28 49 23 84 -10 73 -29 81
-262 118 -175 27 -310 60 -445 110 -118 43 -263 80 -315 80 -18 0 -45 -4 -59
-10 -30 -11 -55 8 -57 43 -1 12 -5 4 -8 -18 -7 -48 3 -44 -301 -121 -260 -65
-346 -78 -401 -59 -78 28 -174 95 -135 95 21 0 20 9 -1 32 -15 17 -15 20 -3
28 8 6 25 10 38 10 13 0 42 4 65 9 23 6 83 17 132 26 129 24 342 86 474 139
63 25 124 46 135 46 11 0 31 11 45 24 29 27 163 76 209 76 16 0 102 -25 192
-55 179 -60 316 -100 370 -110 l35 -6 -45 25 c-25 13 -79 34 -120 46 -119 36
-361 117 -405 136 -22 9 -34 19 -28 21 13 5 136 -30 188 -53 94 -41 390 -119
550 -144 193 -31 219 -44 145 -74 -52 -21 -52 -21 -156 9 -129 37 -133 38
-104 21 51 -29 325 -126 355 -125 29 0 29 1 8 11 -25 12 -29 23 -13 33 6 3 10
24 10 45 0 70 -20 79 -265 115 -150 22 -317 65 -487 126 -79 28 -172 60 -208
71 -84 26 -91 34 -44 47 97 28 91 29 471 -98 287 -96 395 -127 518 -150 l155
-29 76 -68 c121 -110 192 -170 309 -261 61 -47 110 -92 110 -99 0 -8 55 -41
125 -75 69 -33 154 -80 190 -103 36 -24 106 -69 155 -101 50 -32 131 -88 180
-125 50 -37 108 -77 130 -89 l40 -23 -32 28 c-17 16 -71 57 -120 92 -48 34
-137 98 -198 142 -60 43 -138 94 -173 111 -85 44 -94 56 -59 83 15 11 56 26
90 33 77 16 255 103 305 150 20 19 51 48 69 65 28 28 34 30 49 17 16 -13 16
-12 0 13 -15 24 -16 30 -3 55 16 32 30 83 22 83 -2 0 -21 -32 -40 -71 -20 -39
-55 -89 -78 -110 -57 -53 -149 -109 -180 -109 -14 0 -28 -4 -31 -9 -3 -5 -18
-12 -33 -16 -15 -3 -45 -15 -67 -26 -75 -36 -75 -22 2 85 117 164 181 281 238
434 14 35 38 91 55 125 66 131 117 297 148 483 11 66 27 155 35 199 14 77 24
172 46 435 13 149 20 200 29 200 3 0 18 -24 34 -53 62 -120 273 -372 378 -453
61 -47 106 -71 115 -62 3 3 -9 39 -26 79 -51 119 -106 282 -153 459 -77 284
-113 463 -163 795 l-6 39 23 -17 c13 -10 38 -27 54 -38 38 -27 116 -197 123
-269 2 -28 9 -53 13 -56 5 -3 21 8 35 25 36 44 115 77 229 96 171 29 305 87
445 193 30 23 63 42 72 42 45 0 86 -179 75 -325 -8 -106 -60 -269 -109 -337
-10 -16 -17 -32 -14 -37 3 -4 28 -11 56 -14 70 -8 199 -57 350 -130 147 -71
206 -81 315 -52 36 10 68 15 72 11 17 -17 -135 -141 -284 -232 -10 -7 -15 -15
-11 -19 10 -10 440 21 493 35 22 6 64 18 93 26 l52 15 0 918 0 918 -52 7 c-29
4 -84 9 -123 11 -126 8 -169 14 -210 29 -25 9 -78 14 -141 14 -56 0 -111 5
-122 11 -11 6 -52 11 -91 11 -39 0 -90 6 -113 14 -28 10 -55 12 -78 7 -21 -4
-54 -2 -85 6 -27 7 -69 13 -91 13 -23 0 -61 7 -84 15 -23 8 -66 15 -94 15 -59
0 -106 23 -73 36 10 3 51 4 90 0 199 -18 366 -32 542 -45 72 -5 143 -14 158
-20 16 -6 56 -11 91 -11 39 0 69 -5 82 -15 12 -9 44 -14 91 -15 39 0 75 -5 78
-10 4 -6 32 -10 63 -9 31 1 75 -3 97 -8 22 -5 46 -8 53 -5 9 3 12 367 12 1683
l0 1679 -1605 0 c-883 0 -1605 -3 -1605 -7 0 -5 12 -26 25 -48 14 -22 25 -51
25 -65 0 -35 7 -43 78 -80 76 -40 190 -150 216 -207 14 -32 16 -50 9 -80 -7
-33 -13 -38 -40 -41 -17 -2 -46 6 -67 17 -20 11 -36 18 -36 15 0 -8 33 -39 70
-64 95 -66 288 -241 378 -345 75 -86 87 -123 86 -255 0 -139 -30 -260 -64
-260 -5 0 -6 18 -3 40 4 30 2 40 -9 40 -14 0 -200 137 -206 152 -2 4 -7 8 -11
8 -5 0 7 -42 26 -92 54 -147 63 -166 88 -172 48 -12 297 -329 370 -472 l37
-72 -5 -199 c-3 -109 -8 -208 -12 -220 -7 -21 -35 -33 -35 -15 0 4 -12 77 -26
162 -22 131 -78 329 -90 318 -2 -2 4 -30 12 -62 8 -32 14 -76 12 -99 l-3 -42
-22 45 c-12 25 -36 86 -54 135 -80 229 -158 412 -159 375 0 -9 13 -54 29 -100
17 -47 43 -132 59 -190 17 -58 48 -166 70 -240 21 -74 49 -180 62 -235 12 -55
39 -170 60 -255 87 -355 159 -839 205 -1375 33 -388 69 -638 129 -902 43 -188
48 -215 38 -209 -5 3 -16 24 -26 48 -10 24 -29 66 -42 95 -57 120 -156 474
-209 752 -14 69 -28 128 -32 132 -5 5 -6 -81 -5 -189 5 -253 -32 -831 -58
-931 -5 -19 -14 -91 -20 -160 -19 -220 -73 -544 -93 -566 -6 -6 -7 1 -2 20 9
37 24 151 30 225 5 54 5 54 -10 25 -8 -16 -14 -38 -15 -48 0 -21 -44 -199 -65
-267 -8 -25 -24 -76 -35 -115 -25 -83 -49 -144 -65 -165 -10 -12 -65 -176
-136 -400 -17 -53 -48 -118 -59 -125 -5 -3 -10 -15 -10 -26 0 -10 -4 -19 -10
-19 -5 0 -10 -4 -10 -9 0 -13 -82 -143 -87 -138 -2 2 7 26 21 53 27 55 74 189
81 231 17 112 25 177 29 238 2 39 9 88 15 110 6 22 11 57 11 78 0 21 6 70 14
110 8 40 22 126 31 192 15 105 31 185 76 379 27 113 59 317 64 396 3 47 6 101
9 120 2 19 7 79 11 133 8 95 19 124 28 70 3 -22 4 -20 4 7 -1 20 2 41 6 47 4
6 8 97 9 201 1 164 -1 192 -15 206 -13 13 -14 22 -6 43 5 14 10 66 10 114 0
66 4 93 16 104 12 13 13 24 4 63 -6 26 -11 65 -11 87 -4 445 -36 927 -75 1145
-43 233 -145 620 -217 820 -91 253 -218 552 -239 566 -16 9 -10 -39 20 -156
16 -63 34 -149 41 -190 6 -41 25 -145 41 -230 16 -85 36 -218 44 -295 9 -77
24 -207 34 -290 11 -82 22 -181 25 -220 3 -38 15 -169 26 -290 11 -121 24
-267 29 -325 15 -173 3 -796 -20 -1000 -31 -279 -91 -595 -134 -696 -8 -20
-15 -45 -15 -55 0 -11 -4 -19 -9 -19 -12 0 -6 74 15 180 10 47 18 105 19 130
1 25 4 52 8 60 7 17 44 330 51 440 28 399 20 1128 -14 1375 -39 271 -85 557
-106 650 -52 236 -157 578 -185 606 -19 19 -48 23 -174 24 l-50 0 -24 80 c-47
160 -50 212 -12 200 12 -4 28 3 45 17 90 79 20 372 -163 688 -57 97 -73 140
-53 140 10 0 62 -53 104 -107 87 -109 123 -152 127 -148 6 7 -65 120 -129 205
-31 41 -78 104 -105 140 -27 36 -75 93 -107 127 -51 54 -59 67 -56 95 3 30 6
33 41 36 36 3 98 -23 169 -70 46 -32 52 -19 12 26 -22 25 -58 67 -81 94 -43
50 -105 96 -198 146 -27 15 -60 38 -72 52 l-22 24 -3156 0 -3155 0 0 -2837z
m6195 2667 c36 -18 51 -32 53 -49 6 -36 -11 -44 -87 -42 -118 3 -262 -32 -407
-100 -34 -16 -65 -29 -68 -29 -9 0 -231 -137 -307 -190 -143 -99 -174 -94 -99
15 42 61 180 205 196 205 8 0 14 4 14 9 0 7 101 81 125 90 6 2 21 12 35 21 36
24 164 71 235 86 33 7 105 12 160 11 84 -2 108 -6 150 -27z m560 -1462 c4 -18
11 -38 16 -44 5 -6 10 -33 11 -60 2 -38 0 -49 -12 -49 -10 0 -21 21 -32 60
-21 77 -23 125 -4 125 8 0 17 -14 21 -32z m-755 -423 c0 -8 -7 -15 -16 -15
-14 0 -14 3 -4 15 7 8 14 15 16 15 2 0 4 -7 4 -15z m1104 -457 c3 -13 6 -42 6
-66 0 -24 4 -52 10 -62 14 -26 25 -431 24 -845 -1 -278 -5 -361 -17 -405 -21
-77 -25 -52 -32 225 -3 127 -8 248 -10 270 -11 98 -6 905 5 905 4 0 10 -10 14
-22z m66 -339 c0 -11 5 -29 10 -39 13 -24 27 -95 45 -225 7 -55 22 -138 33
-185 11 -47 29 -148 41 -225 12 -77 26 -155 32 -174 10 -31 30 -393 23 -416
-1 -5 -5 -68 -9 -140 -3 -71 -10 -170 -16 -220 -5 -49 -12 -110 -15 -135 -12
-116 -40 -248 -119 -565 -18 -70 -92 -302 -102 -318 -3 -5 -10 -4 -15 1 -6 6
-6 23 1 48 23 79 80 354 110 524 48 280 83 630 82 830 0 145 -25 409 -45 490
-20 76 -35 175 -46 305 -32 354 -37 465 -20 465 6 0 10 -9 10 -21z m1340 -209
c0 -5 -7 -10 -15 -10 -8 0 -15 5 -15 10 0 6 7 10 15 10 8 0 15 -4 15 -10z
m-944 -175 c79 -60 78 -59 94 -155 19 -122 9 -220 -23 -220 -8 0 -33 -18 -57
-39 -41 -36 -44 -42 -34 -68 8 -23 15 -28 44 -28 19 0 36 -4 38 -10 2 -5 9
-17 16 -25 8 -8 16 -40 20 -70 4 -30 12 -70 19 -88 9 -27 9 -35 -3 -42 -11 -7
-12 -16 -3 -45 11 -33 10 -35 -8 -30 -32 10 -21 -12 11 -24 39 -13 38 -23 -7
-56 -56 -41 -63 -54 -57 -94 5 -32 2 -38 -26 -54 -28 -17 -30 -22 -24 -50 14
-63 12 -72 -19 -69 -25 3 -28 0 -22 -17 8 -26 -6 -27 -35 -3 -31 25 -20 85 22
110 30 17 30 22 13 78 -6 18 2 27 45 53 34 21 50 37 46 46 -3 8 -1 17 4 20 18
11 10 25 -15 25 -33 0 -32 22 3 52 24 20 27 29 26 73 -4 90 -7 88 -31 -15 -3
-14 -11 -32 -18 -40 -7 -8 -25 -41 -40 -72 -16 -32 -33 -58 -39 -58 -8 0 -10
81 -8 275 4 245 -4 441 -24 633 -5 47 -4 62 6 62 7 0 45 -25 86 -55z m-1777
-240 c-5 -87 -12 -162 -14 -166 -3 -4 -2 -21 1 -39 6 -28 10 -31 33 -25 14 4
33 12 41 19 18 15 139 86 147 86 8 0 100 69 162 122 31 26 60 48 65 48 12 0 0
-181 -16 -244 -13 -49 -13 -49 -79 -71 -36 -13 -126 -53 -200 -91 -118 -60
-144 -77 -216 -150 -73 -73 -96 -104 -78 -104 8 0 70 34 130 70 102 62 389
200 398 191 5 -5 3 -30 -6 -60 -10 -36 -11 -51 -3 -51 16 0 220 64 299 94 93
36 101 35 92 -11 -17 -95 -25 -111 -64 -117 -162 -24 -191 -30 -191 -40 0 -7
-26 -20 -57 -31 -133 -43 -249 -110 -384 -221 -97 -81 -107 -93 -88 -104 12
-8 11 -13 -3 -38 -10 -16 -22 -41 -28 -56 l-10 -27 31 18 c17 10 51 35 76 56
50 41 71 46 79 20 19 -62 95 -163 124 -163 12 0 14 17 2 22 -4 2 -18 18 -31
36 -33 47 -22 74 44 118 l55 37 29 -32 c16 -17 37 -31 48 -31 27 0 61 26 79
62 l16 31 70 -6 c80 -7 95 -16 104 -64 10 -54 -13 -70 -147 -99 -150 -32 -189
-43 -189 -53 0 -4 42 0 93 11 116 23 200 37 255 43 24 3 52 10 63 15 11 6 27
9 37 6 69 -18 72 -18 67 11 -4 21 2 37 23 62 25 29 38 35 98 45 50 8 70 16 72
28 2 10 -4 18 -17 20 -15 2 4 19 72 65 128 87 124 86 132 14 4 -33 4 -68 1
-79 -4 -11 -8 -112 -9 -223 -2 -168 -6 -213 -21 -254 -10 -27 -41 -113 -68
-190 -125 -345 -239 -565 -375 -726 -97 -113 -508 -526 -559 -561 -25 -17 -39
-18 -109 -13 -44 4 -125 18 -180 32 -55 14 -140 29 -190 33 -49 4 -143 15
-207 25 -107 17 -122 17 -190 3 -40 -9 -152 -44 -248 -78 -96 -34 -189 -66
-206 -72 -29 -10 -42 -4 -200 87 -223 129 -257 151 -372 242 -251 200 -372
352 -594 742 -28 49 -54 179 -39 194 4 4 66 27 137 51 303 103 282 93 316 147
22 37 36 49 54 49 15 0 24 -6 24 -15 0 -22 15 -18 32 6 13 20 25 22 114 26
146 5 306 32 242 41 -33 4 -33 8 -12 51 9 18 18 59 21 92 3 33 10 62 14 65 5
3 30 -4 56 -15 69 -28 148 -51 174 -51 21 0 20 3 -16 40 l-38 39 23 9 c24 9
24 9 -16 34 -22 14 -62 36 -89 48 -46 21 -48 23 -30 36 25 18 66 18 101 -1 16
-8 37 -15 47 -15 27 0 17 33 -11 40 -13 3 -24 10 -25 15 -1 9 382 206 488 251
129 54 204 88 254 115 30 16 62 29 70 29 21 0 145 63 211 108 60 41 55 33 130
252 21 63 46 147 54 185 26 115 27 118 31 113 2 -2 0 -75 -6 -163z m1871 -199
c0 -28 -66 -62 -87 -44 -22 18 -14 33 30 55 47 23 57 22 57 -11z m-510 -334
c0 -29 -6 -56 -16 -68 -15 -18 -15 -18 -9 11 3 17 8 47 12 68 8 51 13 47 13
-11z m-762 -173 c2 -10 -13 -24 -43 -40 -42 -22 -47 -23 -72 -9 -60 34 -26 71
62 67 36 -1 51 -6 53 -18z m315 2 c9 -9 -27 -107 -48 -131 -7 -8 -16 -25 -19
-37 -4 -12 -18 -31 -30 -41 -25 -19 -103 -48 -110 -41 -3 2 4 35 14 72 13 46
17 84 13 117 -9 80 -6 83 90 75 45 -4 86 -10 90 -14z m-504 -55 c16 -19 25
-79 17 -110 -5 -19 -13 -26 -30 -26 -18 0 -25 8 -34 39 -15 49 -15 84 0 99 16
16 33 15 47 -2z m1471 -60 c0 -3 -4 -8 -10 -11 -5 -3 -10 -1 -10 4 0 6 5 11
10 11 6 0 10 -2 10 -4z m-16 -48 c16 -31 16 -31 -4 -13 -11 10 -20 24 -20 32
0 21 7 15 24 -19z m-164 -156 c0 -27 -6 -57 -15 -68 -8 -10 -15 -14 -16 -9 -2
15 2 68 6 91 2 10 4 22 4 27 1 4 6 7 11 7 6 0 10 -22 10 -48z m117 26 c-3 -8
-6 -5 -6 6 -1 11 2 17 5 13 3 -3 4 -12 1 -19z m100 -70 c-2 -13 -4 -3 -4 22 0
25 2 35 4 23 2 -13 2 -33 0 -45z m-74 -163 c7 -17 -11 -372 -23 -440 -10 -60
-12 486 -2 555 6 44 6 44 13 -28 4 -40 9 -79 12 -87z m-3525 124 c1 -8 -4 -23
-12 -34 -14 -19 -16 -19 -32 -3 -17 17 -17 18 1 38 20 22 38 22 43 -1z m137
-44 c52 -21 66 -40 53 -78 -6 -17 -14 -36 -19 -41 -4 -5 -87 -11 -185 -13
l-177 -5 7 27 c11 43 47 115 58 115 6 0 23 -11 40 -25 52 -44 120 -31 141 28
7 19 19 18 82 -8z m3456 -58 c-13 -13 -14 5 -3 54 l7 34 3 -39 c2 -21 -1 -43
-7 -49z m-1 -31 c0 -3 -4 -8 -10 -11 -5 -3 -10 -1 -10 4 0 6 5 11 10 11 6 0
10 -2 10 -4z m-10 -57 c0 -11 -4 -17 -10 -14 -5 3 -10 13 -10 21 0 8 5 14 10
14 6 0 10 -9 10 -21z m-350 -549 c0 -14 6 -50 14 -79 12 -47 12 -59 -1 -90
-26 -63 -65 -94 -55 -44 3 15 -3 40 -13 60 -17 32 -17 36 -1 96 28 97 36 114
47 96 5 -7 9 -25 9 -39z m-170 -199 c0 -6 -4 -13 -10 -16 -5 -3 -10 1 -10 9 0
9 5 16 10 16 6 0 10 -4 10 -9z m-436 -141 c73 0 74 -4 21 -141 -47 -126 -162
-359 -176 -359 -4 0 -34 16 -67 35 l-59 36 -6 67 c-3 37 -13 81 -21 97 -24 45
-20 57 35 110 28 28 71 76 96 109 l46 58 45 -6 c25 -3 63 -6 86 -6z m411 -72
c-15 -35 -33 -77 -41 -93 -7 -17 -24 -41 -38 -54 l-26 -24 0 22 c0 12 18 49
40 81 22 32 40 61 40 65 0 9 44 74 48 70 2 -2 -8 -32 -23 -67z m120 -94 c27
-18 38 -51 61 -177 15 -88 19 -505 5 -541 -7 -17 -11 -14 -39 25 -78 114 -238
220 -352 234 -97 12 -224 37 -259 51 l-34 14 37 43 c20 23 50 63 67 89 19 30
51 60 87 82 31 19 75 51 96 71 22 19 43 35 47 35 4 0 10 -26 14 -57 8 -76 20
-103 44 -103 30 0 52 29 112 145 57 112 67 120 114 89z m-884 -121 c8 -22 7
-30 -7 -40 -23 -17 -39 -16 -53 1 -8 10 -6 19 10 40 26 33 37 33 50 -1z
m-2314 -106 c39 -28 72 -58 72 -64 1 -7 -24 -36 -54 -65 -46 -43 -69 -56 -142
-80 -244 -79 -261 -85 -315 -122 -15 -10 -31 -15 -36 -12 -5 3 -12 34 -16 68
-3 35 -9 86 -12 113 l-6 50 78 37 c146 69 241 108 262 108 12 0 24 5 27 10 16
26 71 9 142 -43z m2253 31 c0 -6 -6 -5 -15 2 -8 7 -15 14 -15 16 0 2 7 1 15
-2 8 -4 15 -11 15 -16z m-40 -8 c0 -5 -4 -10 -10 -10 -5 0 -10 5 -10 10 0 6 5
10 10 10 6 0 10 -4 10 -10z m20 -30 c0 -5 -2 -10 -4 -10 -3 0 -8 5 -11 10 -3
6 -1 10 4 10 6 0 11 -4 11 -10z m-14 -47 c-10 -10 -19 5 -10 18 6 11 8 11 12
0 2 -7 1 -15 -2 -18z m87 -3 c-6 -22 -23 -38 -23 -21 0 17 12 41 20 41 5 0 6
-9 3 -20z m-163 -27 c-1 -57 -27 -85 -76 -81 -32 2 -39 6 -36 23 4 24 75 95
97 95 11 0 15 -10 15 -37z m430 -19 c0 -10 -86 -128 -104 -143 -27 -23 -18 -3
34 74 44 65 70 91 70 69z m-313 -19 c-2 -5 -10 -10 -17 -10 -7 0 -15 5 -17 10
-2 6 6 11 17 11 11 0 19 -5 17 -11z m-177 -74 c0 -5 -26 -9 -57 -9 -43 0 -51
2 -33 8 35 11 90 12 90 1z m643 -52 c9 -6 62 -13 117 -16 65 -4 104 -11 111
-20 6 -7 20 -13 30 -13 11 0 19 -4 19 -9 0 -5 14 -14 30 -21 41 -17 112 -90
166 -171 43 -65 55 -113 35 -134 -5 -6 -23 -49 -40 -97 -16 -48 -40 -109 -52
-137 l-23 -50 -36 27 c-19 15 -42 32 -50 39 -23 19 -148 120 -205 165 -109 86
-131 104 -166 139 l-37 37 -1 98 c-1 55 -4 119 -7 143 l-7 44 49 -8 c27 -4 57
-11 67 -16z m-2813 -6 c-1 -20 -16 -31 -30 -22 -13 8 -13 10 0 19 18 12 30 13
30 3z m500 -34 c0 -6 -4 -7 -10 -4 -5 3 -10 11 -10 16 0 6 5 7 10 4 6 -3 10
-11 10 -16z m-565 1 c-3 -5 -19 -10 -35 -10 -16 0 -32 -4 -35 -10 -3 -5 3 -10
14 -10 11 0 23 -5 27 -11 5 -8 -9 -9 -47 -5 -30 3 -48 3 -41 0 24 -11 12 -23
-18 -17 -25 4 -29 3 -24 -10 6 -17 48 -16 81 1 19 11 79 9 90 -2 13 -12 23 -5
23 17 0 12 4 28 9 35 12 20 24 -98 16 -166 -16 -146 -21 -158 -99 -235 -40
-40 -87 -83 -105 -97 -18 -14 -41 -33 -52 -42 -28 -26 -36 -22 -43 20 -3 20
-10 57 -15 82 -61 309 -62 312 -46 337 9 12 19 23 23 23 5 0 18 9 30 20 28 27
114 70 138 70 11 0 26 5 34 10 20 13 83 13 75 0z m485 -211 c-61 -61 -116
-109 -123 -106 -12 5 -20 26 -46 122 -13 48 -10 50 84 65 38 6 86 15 105 19
19 5 48 9 63 10 26 1 18 -9 -83 -110z m995 -194 c47 -7 106 -24 270 -76 195
-61 378 -102 555 -125 147 -18 123 -48 -32 -40 -188 10 -447 73 -743 183 -73
27 -86 29 -150 22 -38 -4 -119 -19 -180 -32 -230 -53 -357 -78 -362 -74 -6 6
42 20 322 92 121 31 225 58 230 60 6 1 19 1 30 0 11 -2 38 -7 60 -10z m-2595
-24 c0 -40 122 -260 185 -335 81 -94 137 -119 102 -44 -45 95 -94 271 -84 301
3 11 96 -171 111 -221 12 -36 74 -134 108 -169 l31 -32 -59 -38 c-33 -21 -80
-46 -104 -57 -126 -52 -139 -60 -170 -103 -35 -48 -162 -139 -179 -128 -6 3
-11 36 -11 73 0 37 -7 177 -15 312 -8 135 -15 279 -16 320 l-2 74 38 33 c43
37 65 42 65 14z m2410 -398 c0 -20 4 -50 9 -67 5 -17 17 -60 27 -96 9 -36 23
-76 31 -88 8 -13 13 -25 11 -26 -2 -2 -50 -13 -108 -26 -58 -12 -132 -28 -165
-36 -33 -7 -75 -13 -93 -14 -18 0 -80 -11 -138 -25 -117 -28 -207 -31 -316
-13 -64 11 -76 17 -116 56 -40 40 -42 44 -22 49 21 6 21 6 -6 34 -17 18 -24
33 -18 38 5 5 74 21 153 35 80 14 210 46 290 72 80 26 214 69 296 95 83 27
153 49 158 49 4 0 7 -17 7 -37z m-2700 -200 c18 -38 52 -99 77 -137 24 -37 42
-70 39 -73 -3 -3 -19 5 -37 18 -23 16 -51 24 -92 27 l-60 5 7 76 c10 107 17
151 27 151 4 0 22 -30 39 -67z m715 -7 c-11 -7 -38 -19 -60 -25 -22 -7 -49
-16 -60 -20 -11 -5 -33 -14 -48 -20 -33 -13 -57 -14 -57 -3 0 5 19 15 43 22
23 8 67 24 97 37 30 12 66 22 80 23 24 0 24 0 5 -14z m-840 -175 c-8 -7 -123
-51 -154 -58 -22 -5 -21 -2 17 48 22 30 47 72 56 93 l16 39 35 -58 c20 -32 33
-61 30 -64z m1785 78 c52 -12 190 -77 190 -90 0 -21 -56 -20 -130 1 -44 12
-86 20 -95 17 -8 -4 -15 -2 -15 3 0 6 7 10 15 10 20 0 19 7 -5 32 -17 19 -22
19 -50 8 -37 -15 -39 -30 -4 -30 14 0 23 -4 19 -10 -6 -10 -125 -10 -125 1 0
4 8 9 18 13 9 3 37 17 62 31 51 28 58 28 120 14z m1359 -25 c2 -2 -8 -4 -24
-4 -16 0 -37 -7 -47 -17 -22 -20 -24 -1 -2 21 14 14 57 14 73 0z m68 -10 c-3
-3 -12 -4 -19 -1 -8 3 -5 6 6 6 11 1 17 -2 13 -5z m-2527 -14 c0 -5 -5 -10
-11 -10 -5 0 -7 5 -4 10 3 6 8 10 11 10 2 0 4 -4 4 -10z m2540 -30 c0 -5 -4
-10 -10 -10 -5 0 -10 5 -10 10 0 6 5 10 10 10 6 0 10 -4 10 -10z m-2718 -40
c-18 -42 -38 -56 -26 -17 5 19 32 57 40 57 1 0 -5 -18 -14 -40z m-346 5 c9 -8
20 -15 25 -15 5 0 15 -11 21 -25 9 -21 8 -28 -7 -45 -10 -11 -22 -20 -26 -20
-12 0 -40 69 -37 89 2 11 -6 17 -24 19 -16 2 -28 8 -28 14 0 15 57 2 76 -17z
m3451 6 c16 -8 -49 -53 -137 -96 -30 -14 -63 -31 -73 -36 -22 -12 -20 -13 -41
28 -16 33 -13 63 8 63 6 0 27 14 46 30 34 30 37 30 109 25 41 -4 81 -10 88
-14z m-424 -6 c4 -8 2 -17 -3 -20 -6 -4 -10 3 -10 14 0 25 6 27 13 6z m71 -2
c6 -15 -8 -32 -26 -33 -12 0 -10 18 2 25 6 4 8 11 5 16 -4 5 -2 9 3 9 6 0 13
-8 16 -17z m-733 -23 c24 -13 39 -29 39 -42 0 -13 -16 -9 -86 24 -53 25 -63
33 -48 38 21 8 57 0 95 -20z m539 -2 c0 -5 -13 -2 -30 7 -16 9 -30 17 -30 19
0 3 14 -1 30 -7 17 -6 30 -15 30 -19z m-3676 -25 c4 -16 12 -69 20 -119 15
-104 21 -118 47 -111 28 7 23 -8 -13 -40 -83 -75 -118 -133 -118 -196 0 -50
-20 -138 -36 -162 -8 -11 -14 -42 -13 -70 l1 -50 14 45 c20 66 63 94 273 185
99 42 135 50 152 33 8 -7 45 -29 82 -48 73 -37 92 -59 82 -90 -9 -28 -27 -25
-111 15 -55 27 -80 34 -101 29 -73 -18 -271 -107 -334 -151 l-26 -18 2 -140
c2 -77 8 -162 14 -188 l12 -49 -56 -81 c-87 -127 -271 -394 -364 -528 -96
-137 -92 -135 -196 -84 -27 13 -120 47 -206 74 -142 46 -162 50 -225 45 -90
-7 -103 2 -81 53 20 48 89 273 116 378 24 97 95 319 163 510 27 77 51 147 54
155 4 12 9 11 24 -7 27 -34 45 -28 80 27 63 98 203 215 503 420 42 29 108 83
145 120 37 38 72 68 79 69 6 1 14 -11 17 -26z m686 8 c5 -11 11 -33 13 -48 2
-16 7 -35 11 -42 5 -8 -3 -23 -23 -43 -17 -17 -31 -26 -31 -20 0 6 5 14 10 17
14 9 12 25 -3 25 -6 0 -27 16 -44 35 -18 19 -37 35 -43 35 -23 0 -8 19 20 25
17 4 30 13 30 21 0 21 48 17 60 -5z m3050 -2 c0 -8 14 -10 42 -6 23 3 63 1 89
-5 38 -9 50 -17 63 -45 9 -18 16 -40 16 -48 0 -20 -26 -19 -34 0 -3 8 -14 15
-24 15 -16 0 -173 80 -191 96 -2 2 5 4 17 4 12 0 22 -5 22 -11z m-463 -19 c21
-16 35 -19 77 -14 l51 5 -50 -30 c-58 -36 -63 -36 -109 -14 -34 16 -35 17 -20
45 17 33 19 34 51 8z m385 -26 c40 -14 97 -37 127 -51 30 -13 67 -27 83 -30
15 -3 30 -9 33 -13 5 -8 -58 -33 -110 -45 -16 -3 -51 -24 -78 -47 l-47 -40
-47 31 c-26 17 -53 31 -60 31 -10 0 -12 9 -9 33 3 17 8 54 11 81 7 48 14 76
20 76 2 0 37 -12 77 -26z m-122 -1 c0 -22 -21 -143 -25 -143 -23 0 -33 15 -28
44 9 57 -49 75 -63 19 -5 -17 -11 -22 -23 -17 -9 3 -24 9 -33 11 -10 3 -18 9
-18 13 0 6 165 87 183 89 4 1 7 -7 7 -16z m-3098 -25 c-11 -18 -31 -53 -45
-78 -21 -37 -40 -52 -108 -88 -95 -50 -233 -139 -271 -175 -15 -14 -30 -22
-33 -17 -22 35 124 182 299 303 96 66 130 85 159 86 18 1 18 0 -1 -31z m148
-20 c30 -41 39 -81 20 -93 -5 -3 -23 -44 -41 -90 -18 -46 -39 -87 -47 -90 -8
-3 -15 -4 -16 -3 -7 16 -74 106 -85 114 -10 8 -11 13 -3 18 6 4 9 13 6 21 -8
19 32 104 63 138 38 39 67 35 103 -15z m533 36 c3 -4 -9 -23 -28 -43 -39 -40
-42 -49 -20 -57 8 -4 15 -10 15 -15 0 -14 -28 -11 -33 4 -3 9 -8 9 -18 -2 -11
-10 -11 -15 -1 -18 6 -3 12 -10 12 -16 0 -8 -4 -7 -12 1 -16 16 -29 15 -22 -1
5 -15 -50 -77 -69 -77 -8 1 -7 5 4 13 8 7 19 19 23 27 28 58 122 190 136 190
4 0 9 -3 13 -6z m44 -10 c-3 -3 -12 -4 -19 -1 -8 3 -5 6 6 6 11 1 17 -2 13 -5z
m-728 -278 l54 -55 -13 -60 c-7 -34 -17 -61 -22 -61 -5 0 -33 11 -63 24 l-53
25 5 68 c9 134 14 138 92 59z m535 39 c-22 -17 -34 -19 -34 -6 0 5 8 12 18 14
32 9 36 7 16 -8z m2766 -82 c212 -125 239 -144 240 -166 0 -22 -292 160 -385
239 l-30 26 45 -24 c25 -14 83 -47 130 -75z m2280 45 c0 -5 -11 -1 -25 8 -14
9 -25 18 -25 20 0 2 11 -2 25 -8 14 -6 25 -15 25 -20z m-5714 -5 c-3 -16 -8
-45 -12 -66 -10 -61 -73 -78 -75 -20 -1 25 -2 24 -13 -11 -11 -36 -20 -43
-125 -97 l-113 -58 7 42 c9 52 16 65 53 101 38 35 229 135 260 136 20 0 23 -4
18 -27z m612 -41 c-7 -29 -17 -51 -23 -51 -26 3 -35 -2 -35 -20 0 -10 7 -22
16 -25 8 -3 13 -10 9 -16 -8 -13 -45 11 -45 30 1 20 24 50 39 50 6 0 11 6 11
13 0 17 31 80 36 74 2 -2 -2 -27 -8 -55z m5222 2 c0 -8 -4 -12 -10 -9 -5 3
-10 10 -10 16 0 5 5 9 10 9 6 0 10 -7 10 -16z m-1835 -36 c-4 -24 -16 -87 -26
-141 -10 -54 -22 -123 -25 -153 -4 -30 -9 -52 -12 -49 -11 10 -113 297 -108
302 10 11 153 81 164 82 11 1 12 -9 7 -41z m-1366 17 c46 -8 85 -16 87 -18 4
-4 -21 -88 -37 -122 -4 -11 -15 -38 -22 -60 -76 -214 -69 -207 -83 -79 -6 61
-19 145 -28 188 -18 87 -19 106 -8 106 4 0 45 -7 91 -15z m3231 5 c0 -5 -5
-10 -11 -10 -5 0 -7 5 -4 10 3 6 8 10 11 10 2 0 4 -4 4 -10z m-2890 -79 c0 -5
-7 -12 -16 -15 -22 -9 -24 -8 -24 9 0 8 9 15 20 15 11 0 20 -4 20 -9z m827
-36 l11 -34 -34 27 c-23 18 -29 29 -21 34 23 15 34 8 44 -27z m-732 1 c11 -8
63 -32 115 -54 52 -23 95 -45 95 -49 0 -22 -302 -88 -337 -73 -22 8 -21 9 7
10 44 1 118 25 123 40 4 10 -7 11 -54 5 -103 -15 -204 -3 -204 24 0 8 40 29
151 80 74 35 78 36 104 17z m-2545 -22 c0 -14 -4 -23 -10 -19 -5 3 -10 15 -10
26 0 10 5 19 10 19 6 0 10 -12 10 -26z m30 -58 c0 -29 -6 -48 -17 -57 -15 -13
-16 -12 -8 6 5 11 9 37 8 58 -1 20 3 37 8 37 5 0 9 -20 9 -44z m-44 -22 c-8
-21 -11 -17 -20 21 -7 28 -6 29 10 13 10 -10 14 -23 10 -34z m3594 15 c119
-39 323 -136 479 -228 65 -39 123 -71 128 -71 6 0 29 -13 51 -30 23 -16 49
-30 57 -30 8 0 15 -9 15 -20 0 -11 5 -20 11 -20 5 0 7 5 4 10 -36 58 298 -193
406 -306 31 -33 89 -93 129 -134 41 -43 74 -87 77 -102 3 -16 9 -28 14 -28 5
0 9 -4 9 -10 0 -5 -11 -10 -25 -10 -27 0 -32 9 -13 28 14 14 2 29 -27 34 -11
1 -24 8 -30 15 -5 6 -19 13 -30 15 -11 2 -19 10 -18 16 2 7 -5 12 -15 12 -10
0 -43 21 -73 46 -30 25 -63 53 -74 62 -11 10 -87 66 -170 126 -82 60 -161 119
-175 131 -61 53 -560 277 -667 300 -44 9 -43 -7 6 -126 40 -97 127 -351 201
-589 24 -74 51 -157 61 -185 10 -27 32 -97 49 -155 18 -58 45 -148 61 -200 16
-52 34 -113 40 -135 5 -22 18 -66 28 -97 12 -40 15 -60 7 -68 -7 -7 -6 -10 2
-10 7 0 12 -7 12 -16 0 -11 -6 -14 -20 -9 -11 4 -20 2 -20 -4 0 -6 7 -11 15
-11 20 0 20 -49 -1 -57 -8 -3 -21 0 -27 6 -9 9 -8 11 6 6 26 -11 21 13 -10 40
-21 18 -24 24 -11 25 20 0 41 56 29 77 -6 11 -10 4 -15 -26 -7 -44 -26 -56
-26 -16 0 16 -4 23 -13 19 -9 -3 -20 17 -35 63 -12 37 -22 76 -22 86 0 10 -4
16 -9 13 -5 -4 -7 3 -4 14 3 11 1 20 -5 20 -6 0 -8 9 -5 20 3 11 0 20 -6 20
-6 0 -11 7 -11 15 0 8 -8 34 -19 58 -31 70 -81 203 -81 215 0 7 -4 20 -9 30
-5 9 -18 42 -29 72 -53 148 -111 295 -177 450 -20 47 -59 141 -86 209 l-50
125 2 155 c2 132 6 191 13 191 0 0 44 -14 96 -31z m-3624 -33 c19 -20 18 -32
-2 -15 -13 10 -17 10 -25 -2 -7 -12 -9 -12 -9 2 0 30 15 36 36 15z m-490 -99
c32 -245 117 -539 204 -710 41 -80 47 -101 30 -112 -6 -3 -7 1 -4 9 4 9 -1 18
-10 22 -9 3 -16 10 -16 14 0 5 -17 35 -38 67 -41 63 -96 179 -95 203 0 8 -3
20 -7 25 -12 17 -67 205 -84 285 -32 160 -36 183 -36 230 0 38 4 49 18 52 9 3
19 3 22 0 3 -2 10 -40 16 -85z m-89 -24 c24 -174 63 -340 133 -566 6 -20 6
-27 -2 -25 -6 2 -22 33 -35 69 -12 35 -27 73 -32 84 -6 11 -17 37 -25 58 -16
41 -32 46 -52 20 -13 -17 -13 -17 -14 0 0 23 -31 22 -53 -3 -20 -24 -43 -26
-55 -4 -7 13 -11 6 -16 -30 -5 -30 -3 -52 4 -61 8 -10 8 -14 -1 -17 -16 -5 48
-218 120 -397 34 -85 17 -71 -31 26 -100 197 -181 496 -193 706 -5 98 -5 99
21 120 31 26 182 103 204 106 12 1 18 -19 27 -86z m184 70 c19 -10 42 -16 51
-15 13 2 18 -7 23 -35 17 -105 38 -222 46 -253 6 -22 5 -36 -1 -38 -6 -2 -10
-14 -10 -27 0 -37 -20 -40 -33 -6 -14 38 -32 41 -22 4 4 -16 8 -37 9 -48 2
-11 6 -30 10 -42 4 -13 2 -24 -5 -29 -7 -4 -9 -3 -6 4 4 5 1 23 -7 39 -37 74
-65 164 -82 258 -24 142 -29 205 -16 205 5 0 24 -8 43 -17z m345 -34 c-9 -18
-16 -43 -16 -56 0 -12 -4 -23 -9 -23 -15 0 -10 71 5 77 8 3 14 17 14 31 0 19
3 23 11 15 8 -8 7 -20 -5 -44z m2887 28 c3 -8 8 -39 12 -70 4 -32 16 -68 29
-85 76 -104 112 -146 159 -180 28 -22 61 -49 72 -61 16 -19 17 -24 5 -31 -28
-18 -48 -10 -82 33 -18 23 -49 58 -68 78 -19 20 -50 55 -69 78 -40 48 -53 51
-71 14 -19 -37 -118 -160 -144 -179 -36 -25 -34 -15 8 29 23 23 50 60 61 82
11 21 31 55 44 75 22 33 23 41 17 133 -6 81 -5 97 7 97 8 0 17 -6 20 -13z
m-2873 -57 c0 -5 -2 -10 -4 -10 -3 0 -8 5 -11 10 -3 6 -1 10 4 10 6 0 11 -4
11 -10z m-34 -100 c8 0 14 -4 14 -10 0 -5 -5 -10 -11 -10 -6 0 -8 -7 -5 -16 3
-9 3 -21 -1 -27 -3 -5 -12 12 -19 39 -16 59 -17 104 -2 57 6 -18 17 -33 24
-33z m52 -5 c-2 -15 -6 -21 -11 -16 -6 6 -7 17 -4 25 9 24 17 19 15 -9z m-89
-62 c1 -17 -5 -38 -12 -45 -13 -13 -57 -94 -57 -104 0 -3 6 -4 13 -2 15 3 19
-10 11 -34 -7 -25 -20 -22 -28 5 -10 39 -6 77 9 83 8 4 15 14 15 24 0 10 7 34
15 53 8 20 15 49 16 64 0 25 1 26 9 8 5 -11 9 -34 9 -52z m5341 42 c0 -4 -15
-60 -44 -165 -9 -30 -25 -104 -37 -164 -26 -140 -24 -144 96 -201 188 -89 221
-104 248 -110 15 -4 27 -11 27 -17 0 -17 -143 -75 -230 -92 -47 -10 -107 -16
-135 -14 l-50 3 -68 100 c-37 55 -81 126 -97 157 -16 31 -54 94 -83 140 -115
180 -139 225 -129 245 42 85 61 98 109 72 l23 -12 -22 -21 -23 -21 25 -3 c14
-2 29 -8 35 -13 29 -29 161 9 263 75 60 40 92 54 92 41z m-5274 -41 c-3 -9 -6
-27 -6 -42 0 -19 -3 -23 -11 -15 -13 13 -2 73 13 73 6 0 7 -7 4 -16z m-49 -46
c-3 -8 -6 -5 -6 6 -1 11 2 17 5 13 3 -3 4 -12 1 -19z m5469 -35 c-1 -10 -6
-27 -13 -38 -6 -11 -14 -35 -18 -52 -4 -21 -13 -33 -23 -33 -12 0 -13 3 -4 12
7 7 12 27 12 44 0 18 5 36 10 39 6 3 10 15 10 26 0 10 6 19 14 19 7 0 13 -8
12 -17z m102 -19 c19 -6 22 -11 17 -33 -9 -37 -19 -44 -54 -36 -25 5 -31 11
-28 28 6 45 19 53 65 41z m213 -4 c19 -11 25 -45 11 -67 -10 -15 -68 -1 -65
15 2 6 -18 14 -42 18 -41 6 -56 20 -38 37 10 11 112 8 134 -3z m-8023 -26 c43
-5 50 -12 32 -30 -5 -5 -13 -38 -16 -72 -6 -51 -9 -60 -20 -51 -8 6 -14 19
-14 29 0 24 -10 31 -31 19 -15 -8 -21 -6 -26 8 -9 23 -24 38 -40 39 -41 3 -46
5 -40 11 4 3 35 6 70 5 42 -1 56 1 42 7 -11 5 -40 9 -65 9 -24 1 -46 6 -48 11
-2 6 -10 11 -17 11 -8 0 -17 5 -20 10 -7 11 80 8 193 -6z m7638 -37 c-3 -17
-1 -36 5 -44 8 -9 10 -37 6 -82 -6 -78 -14 -70 103 -107 30 -9 63 -23 73 -32
9 -8 17 -12 17 -7 0 4 7 2 15 -5 13 -10 15 -9 15 9 0 23 1 24 24 15 10 -4 16
-17 15 -33 -1 -17 -3 -20 -6 -8 -10 36 -23 15 -23 -38 0 -69 -1 -69 -157 -9
-230 90 -228 88 -206 190 8 38 18 78 23 89 5 11 11 31 14 45 8 33 23 56 32 47
4 -4 8 -24 10 -44 1 -21 3 -40 4 -43 4 -12 19 38 19 68 1 21 5 31 12 26 6 -4
9 -19 5 -37z m-4610 -30 c50 -194 68 -456 40 -598 -24 -118 -57 -184 -108
-210 -60 -30 -127 -35 -188 -13 -29 10 -55 25 -58 32 -3 8 8 55 24 106 26 85
28 103 31 283 l2 193 66 85 c76 97 163 190 171 182 3 -3 12 -30 20 -60z m-951
14 c5 -17 4 -22 -6 -19 -8 3 -15 18 -17 34 -4 33 11 24 23 -15z m160 5 c0 -37
-15 -44 -15 -8 0 18 4 32 8 32 4 0 8 -11 7 -24z m-215 -22 c0 -8 -4 -12 -10
-9 -5 3 -10 10 -10 16 0 5 5 9 10 9 6 0 10 -7 10 -16z m195 -49 c-4 -16 -7
-38 -7 -47 1 -24 -5 -23 -24 7 -16 24 -15 27 1 45 11 12 15 28 12 42 -6 23 -6
23 9 3 10 -13 13 -30 9 -50z m5602 40 c10 -3 83 -108 83 -120 0 -3 -7 -5 -15
-5 -8 0 -26 18 -40 40 -14 23 -30 38 -35 35 -6 -3 -10 -2 -10 3 0 5 -11 12
-25 14 -16 3 -25 1 -25 -7 0 -7 -8 -16 -17 -19 -15 -6 -15 -8 -3 -17 13 -8 13
-10 0 -18 -8 -6 -11 -13 -7 -18 5 -4 11 -2 15 4 4 7 18 10 30 6 28 -7 32 -53
5 -52 -11 0 -13 3 -5 6 6 2 12 9 12 14 0 13 -28 11 -32 -2 -6 -17 -58 8 -58
28 0 17 26 98 36 114 4 7 61 3 91 -6z m-2506 -12 c13 -16 12 -17 -3 -4 -17 13
-22 21 -14 21 2 0 10 -8 17 -17z m-3131 -3 c0 -5 -4 -10 -10 -10 -5 0 -10 5
-10 10 0 6 5 10 10 10 6 0 10 -4 10 -10z m-110 -20 c0 -5 -4 -10 -10 -10 -5 0
-10 5 -10 10 0 6 5 10 10 10 6 0 10 -4 10 -10z m25 0 c3 -5 1 -10 -4 -10 -6 0
-11 5 -11 10 0 6 2 10 4 10 3 0 8 -4 11 -10z m6048 -5 c4 -8 2 -17 -3 -20 -6
-4 -10 3 -10 14 0 25 6 27 13 6z m-6392 -28 c-8 -8 -11 -7 -11 4 0 9 3 19 7
23 4 4 9 2 11 -4 3 -7 -1 -17 -7 -23z m6238 14 c11 -7 10 -11 -6 -19 -25 -14
-56 3 -33 18 18 12 21 12 39 1z m-5951 -13 c-2 -6 -10 -14 -16 -16 -7 -2 -10
2 -6 12 7 18 28 22 22 4z m5752 2 c0 -5 -7 -10 -15 -10 -8 0 -15 5 -15 10 0 6
7 10 15 10 8 0 15 -4 15 -10z m-5715 -20 c3 -5 1 -10 -4 -10 -6 0 -11 5 -11
10 0 6 2 10 4 10 3 0 8 -4 11 -10z m5935 -9 c0 5 5 9 10 9 6 0 10 -7 10 -15 0
-8 5 -15 10 -15 6 0 10 -7 10 -15 0 -18 -4 -18 -28 -5 -9 5 -29 14 -44 20 -38
13 -36 31 2 20 18 -5 30 -5 30 1z m-6538 -33 c-7 -7 -12 -8 -12 -2 0 6 3 14 7
17 3 4 9 5 12 2 2 -3 -1 -11 -7 -17z m578 -29 c0 -18 -18 -9 -23 12 -4 16 -3
18 9 8 8 -6 14 -15 14 -20z m5826 16 c4 -8 12 -15 20 -15 8 0 14 -7 14 -15 0
-19 -5 -19 -35 1 -14 9 -25 23 -25 30 0 19 19 18 26 -1z m-6408 -38 c3 -23
-15 -45 -109 -140 -61 -61 -108 -105 -103 -97 19 35 149 227 168 248 25 28 40
24 44 -11z m6392 -2 c0 -8 -7 -15 -15 -15 -16 0 -20 12 -8 23 11 12 23 8 23
-8z m208 -15 c39 -12 72 -25 72 -29 0 -17 -158 -131 -181 -131 -8 0 -9 11 -5
31 3 17 6 60 6 96 0 56 2 64 18 60 9 -3 50 -15 90 -27z m-6525 -72 c6 -41 0
-49 -19 -24 -13 19 -14 19 -14 -5 0 -13 5 -58 10 -99 7 -50 7 -90 0 -120 -38
-170 -54 -253 -56 -306 -3 -62 -25 -118 -71 -180 -13 -17 -23 -35 -23 -41 0
-17 -29 -70 -47 -84 -14 -13 -15 -6 -8 76 11 143 119 633 155 708 11 22 20 47
20 54 0 19 23 53 36 53 7 0 14 -15 17 -32z m367 1 c0 -6 -4 -7 -10 -4 -5 3
-10 11 -10 16 0 6 5 7 10 4 6 -3 10 -11 10 -16z m820 -33 c0 -23 -29 -91 -86
-206 l-86 -172 -34 33 c-19 18 -34 36 -34 39 0 14 221 340 230 340 6 0 10 -15
10 -34z m2371 -63 c-9 -15 -10 -12 -10 17 0 29 1 32 10 18 7 -12 7 -24 0 -35z
m2809 7 c0 -5 -2 -10 -4 -10 -3 0 -8 5 -11 10 -3 6 -1 10 4 10 6 0 11 -4 11
-10z m-5810 -96 c0 -8 -4 -12 -10 -9 -5 3 -10 10 -10 16 0 5 5 9 10 9 6 0 10
-7 10 -16z m2879 -76 c1 -27 5 -48 10 -48 5 0 6 20 3 45 -3 30 -1 45 7 45 6 0
11 -15 11 -32 0 -18 3 -43 6 -56 6 -19 3 -23 -12 -20 -17 3 -19 -3 -16 -50 3
-42 0 -53 -14 -59 -16 -6 -15 -7 2 -20 16 -11 16 -15 5 -22 -15 -10 -25 -61
-11 -61 4 0 10 10 13 22 4 12 8 20 10 18 3 -4 -13 -93 -33 -180 0 -3 -8 11
-16 30 -12 27 -14 53 -9 110 12 145 17 175 29 182 8 6 8 8 -1 8 -13 0 -16 57
-6 135 5 42 7 46 14 25 4 -14 7 -46 8 -72z m2372 25 c-12 -20 -14 -14 -5 12 4
9 9 14 11 11 3 -2 0 -13 -6 -23z m29 -25 c0 -18 -2 -20 -9 -8 -6 8 -7 18 -5
22 9 14 14 9 14 -14z m346 -10 c36 -41 51 -72 58 -123 13 -91 47 -117 164
-131 l63 -7 -7 -31 c-3 -17 -10 -35 -14 -41 -9 -12 -50 -221 -50 -258 0 -35
-18 -44 -29 -15 -9 22 -35 81 -107 237 -36 77 -48 102 -137 269 -27 52 -47 95
-45 96 3 3 68 23 79 25 3 1 14 -9 25 -21z m-2699 -130 c-3 -8 -6 -5 -6 6 -1
11 2 17 5 13 3 -3 4 -12 1 -19z m-3281 -54 c-3 -9 -6 -18 -6 -20 0 -2 -9 -4
-19 -4 -30 0 -51 -11 -51 -26 0 -9 -11 -14 -30 -14 -16 0 -30 2 -30 4 0 6 123
76 134 76 4 0 5 -7 2 -16z m28 -46 c6 -4 7 -10 3 -14 -12 -12 -41 22 -31 37 6
10 9 10 12 -1 3 -8 10 -18 16 -22z m-34 -18 c0 -5 -4 -10 -10 -10 -5 0 -10 5
-10 10 0 6 5 10 10 10 6 0 10 -4 10 -10z m-136 -9 c3 -5 -9 -14 -27 -21 -17
-6 -40 -16 -49 -21 -35 -18 -17 7 20 27 43 26 49 27 56 15z m204 -11 c15 -25
8 -40 -20 -40 -18 0 -19 2 -7 17 11 13 11 17 1 20 -6 3 -10 9 -6 14 8 14 18
11 32 -11z m6321 -10 c31 -43 16 -56 -19 -16 -33 37 -36 46 -17 46 7 0 23 -14
36 -30z m-929 1 c0 -5 -8 -11 -17 -14 -10 -4 -28 -14 -40 -23 -13 -9 -23 -12
-23 -7 0 5 17 19 38 31 43 25 42 25 42 13z m-5580 -19 c0 -13 -12 -22 -22 -16
-10 6 -1 24 13 24 5 0 9 -4 9 -8z m3420 -52 c0 -5 -5 -10 -11 -10 -5 0 -7 5
-4 10 3 6 8 10 11 10 2 0 4 -4 4 -10z m3050 -23 c0 -5 -4 -5 -10 -2 -5 3 -10
14 -10 23 0 15 2 15 10 2 5 -8 10 -19 10 -23z m-7530 19 c0 -2 -16 -20 -35
-40 -19 -21 -35 -42 -35 -47 0 -6 -13 -29 -28 -52 -16 -23 -32 -54 -35 -68 -8
-32 -53 -79 -89 -91 -16 -6 -28 -16 -28 -24 0 -8 -4 -14 -10 -14 -5 0 -9 10
-7 22 2 19 -7 23 -93 43 -75 17 -95 25 -95 39 0 20 3 22 180 109 72 36 155 79
185 96 47 26 90 39 90 27z m4390 -108 c0 -18 -5 -28 -15 -28 -8 0 -15 -7 -15
-15 0 -8 -4 -15 -10 -15 -5 0 -10 6 -10 13 0 15 15 39 24 38 3 -1 6 2 5 7 -1
4 -6 6 -11 4 -6 -2 -8 4 -4 13 3 9 6 29 7 43 l1 27 13 -30 c8 -16 14 -42 15
-57z m78 -8 c-2 -55 -6 -80 -15 -80 -7 0 -10 11 -8 33 3 17 7 53 10 80 9 72
16 56 13 -33z m4291 -43 c1 -16 -1 -16 -29 -2 -16 8 -40 15 -55 15 -14 0 -25
4 -25 8 0 4 19 28 42 52 l42 45 12 -50 c7 -27 13 -58 13 -68z m-7829 43 c0 -5
-4 -10 -10 -10 -5 0 -10 5 -10 10 0 6 5 10 10 10 6 0 10 -4 10 -10z m1271 -21
c35 -12 89 -22 119 -24 30 -1 53 -6 52 -11 -8 -21 -179 -72 -312 -93 -39 -6
-85 -7 -115 -2 -48 8 -48 11 5 16 62 7 242 68 239 81 -1 5 -16 14 -32 19 -17
6 -32 16 -35 23 -5 16 4 15 79 -9z m-1311 -19 c0 -5 -4 -10 -10 -10 -5 0 -10
5 -10 10 0 6 5 10 10 10 6 0 10 -4 10 -10z m3484 -47 c-7 -41 -24 -69 -24 -40
0 9 -4 17 -10 17 -5 0 -10 9 -10 20 0 12 5 17 14 14 7 -3 16 2 19 10 11 29 18
16 11 -21z m3339 30 c-7 -2 -19 -2 -25 0 -7 3 -2 5 12 5 14 0 19 -2 13 -5z
m-6866 -9 c-3 -3 -12 -4 -19 -1 -8 3 -5 6 6 6 11 1 17 -2 13 -5z m6153 -14 c0
-5 -2 -10 -4 -10 -3 0 -8 5 -11 10 -3 6 -1 10 4 10 6 0 11 -4 11 -10z m-2569
-140 c-6 -19 -13 -44 -15 -55 -3 -11 -3 5 1 35 3 30 7 66 9 80 5 51 7 54 11
15 3 -22 0 -56 -6 -75z m159 -20 c0 -16 -4 -30 -9 -30 -10 0 -21 47 -13 55 13
13 22 3 22 -25z m2499 -11 c-19 -12 -61 -11 -79 2 -11 8 -6 9 22 4 21 -3 39
-1 43 5 3 6 11 7 17 4 6 -4 5 -10 -3 -15z m36 -9 c-3 -5 -12 -10 -18 -10 -7 0
-6 4 3 10 19 12 23 12 15 0z m-2718 -97 c-3 -10 -5 -4 -5 12 0 17 2 24 5 18 2
-7 2 -21 0 -30z m3551 -81 c2 -7 -3 -12 -12 -12 -9 0 -16 7 -16 16 0 17 22 14
28 -4z m-198 -16 c0 -11 -19 -15 -25 -6 -3 5 1 10 9 10 9 0 16 -2 16 -4z"/>
<path d="M5899 6122 c-40 -21 -75 -45 -77 -53 -4 -11 -2 -12 9 -2 8 6 47 28
87 47 39 20 72 39 72 41 0 11 -23 3 -91 -33z"/>
<path d="M5788 6052 c-10 -2 -18 -8 -18 -13 0 -13 27 -11 35 2 9 13 4 16 -17
11z"/>
<path d="M6490 5730 c0 -5 5 -10 10 -10 6 0 10 5 10 10 0 6 -4 10 -10 10 -5 0
-10 -4 -10 -10z"/>
<path d="M5596 4300 c-59 -19 -94 -40 -65 -40 22 0 104 27 136 44 41 22 4 20
-71 -4z"/>
<path d="M4960 4230 c0 -5 2 -10 4 -10 2 0 27 -5 57 -10 57 -11 249 6 249 22
0 4 -70 8 -155 8 -97 0 -155 -4 -155 -10z"/>
<path d="M6858 3893 c7 -3 16 -2 19 1 4 3 -2 6 -13 5 -11 0 -14 -3 -6 -6z"/>
<path d="M3835 3810 c3 -5 15 -10 26 -10 10 0 19 5 19 10 0 6 -12 10 -26 10
-14 0 -23 -4 -19 -10z"/>
<path d="M3920 3800 c0 -5 7 -10 15 -10 8 0 15 5 15 10 0 6 -7 10 -15 10 -8 0
-15 -4 -15 -10z"/>
<path d="M3790 3780 c0 -9 34 -14 93 -13 9 0 17 -4 17 -9 0 -4 7 -8 15 -8 8 0
15 7 15 16 0 8 -4 13 -9 9 -5 -3 -12 -1 -16 5 -8 13 -115 13 -115 0z"/>
<path d="M3920 3709 c0 -5 5 -7 10 -4 6 3 10 8 10 11 0 2 -4 4 -10 4 -5 0 -10
-5 -10 -11z"/>
<path d="M3720 3430 c0 -5 5 -10 11 -10 5 0 7 5 4 10 -3 6 -8 10 -11 10 -2 0
-4 -4 -4 -10z"/>
<path d="M2086 2083 c-3 -3 -6 -15 -6 -25 0 -14 6 -19 22 -16 12 2 23 8 25 15
5 13 -31 36 -41 26z"/>
<path d="M5370 2537 c0 -9 12 -14 32 -15 l31 -1 -28 15 c-34 17 -35 17 -35 1z"/>
<path d="M5377 2493 c-4 -3 -7 -13 -7 -22 1 -13 3 -13 11 2 11 19 8 33 -4 20z"/>
<path d="M6657 1734 c6 -15 23 -19 23 -5 0 5 -7 11 -14 14 -10 4 -13 1 -9 -9z"/>
<path d="M6590 1723 c0 -5 12 -16 26 -23 21 -12 27 -12 34 0 12 20 1 33 -16
19 -11 -9 -17 -9 -29 1 -8 7 -15 8 -15 3z"/>
<path d="M6688 1713 c-38 -10 -13 -50 27 -44 20 3 20 3 0 -12 -19 -15 -19 -16
10 -23 17 -4 32 -11 35 -15 3 -4 18 -11 33 -14 21 -6 27 -4 27 8 0 9 -5 19
-11 23 -8 5 -8 9 1 14 7 4 9 13 6 19 -10 15 -39 14 -31 -1 4 -7 0 -5 -8 5 -8
9 -28 17 -46 17 -36 0 -42 16 -8 23 18 3 18 4 2 4 -11 1 -28 -1 -37 -4z m89
-69 c-3 -3 -12 -4 -19 -1 -8 3 -5 6 6 6 11 1 17 -2 13 -5z"/>
<path d="M6858 1613 c7 -3 16 -2 19 1 4 3 -2 6 -13 5 -11 0 -14 -3 -6 -6z"/>
<path d="M6830 1585 c0 -9 5 -15 11 -13 6 2 11 8 11 13 0 5 -5 11 -11 13 -6 2
-11 -4 -11 -13z"/>
<path d="M6880 1560 c0 -5 5 -10 11 -10 5 0 7 5 4 10 -3 6 -8 10 -11 10 -2 0
-4 -4 -4 -10z"/>
<path d="M6517 643 c-4 -3 -7 -11 -7 -17 0 -6 5 -5 12 2 6 6 9 14 7 17 -3 3
-9 2 -12 -2z"/>
<path d="M6580 396 c0 -8 5 -18 10 -21 6 -3 10 3 10 14 0 12 -4 21 -10 21 -5
0 -10 -6 -10 -14z"/>
<path d="M6631 370 c0 -8 4 -24 9 -35 l9 -20 0 20 c0 11 -4 27 -9 35 -9 13
-10 13 -9 0z"/>
<path d="M1950 1525 c0 -8 5 -15 10 -15 6 0 10 7 10 15 0 8 -4 15 -10 15 -5 0
-10 -7 -10 -15z"/>
<path d="M2235 1610 c-4 -6 -2 -17 4 -23 15 -15 25 -2 13 19 -7 12 -11 13 -17
4z"/>
<path d="M6680 10192 c0 -20 38 -42 70 -42 26 0 25 17 -2 41 -30 24 -68 25
-68 1z"/>
<path d="M7700 5316 c0 -22 3 -27 11 -19 8 8 8 16 0 30 -9 16 -10 14 -11 -11z"/>
<path d="M7710 5216 c0 -14 5 -26 10 -26 6 0 10 9 10 19 0 11 -4 23 -10 26 -6
4 -10 -5 -10 -19z"/>
<path d="M7690 5153 c0 -15 5 -35 10 -43 7 -11 10 -6 10 22 0 20 -4 40 -10 43
-6 4 -10 -6 -10 -22z"/>
<path d="M7671 5084 c0 -11 3 -14 6 -6 3 7 2 16 -1 19 -3 4 -6 -2 -5 -13z"/>
<path d="M7687 4981 c-4 -17 -3 -21 5 -13 5 5 8 16 6 23 -3 8 -7 3 -11 -10z"/>
<path d="M7691 4924 c0 -11 3 -14 6 -6 3 7 2 16 -1 19 -3 4 -6 -2 -5 -13z"/>
<path d="M7695 4888 c-4 -10 -4 -26 0 -35 8 -17 8 -17 12 0 3 9 3 25 0 35 -4
16 -4 16 -12 0z"/>
<path d="M7670 4744 c0 -8 5 -12 10 -9 6 3 10 10 10 16 0 5 -4 9 -10 9 -5 0
-10 -7 -10 -16z"/>
<path d="M727 4710 c-4 -17 -2 -18 14 -9 11 5 17 14 14 20 -10 15 -22 10 -28
-11z"/>
<path d="M7687 4700 c3 -11 7 -20 9 -20 2 0 4 9 4 20 0 11 -4 20 -9 20 -5 0
-7 -9 -4 -20z"/>
<path d="M760 4694 c0 -9 32 -33 44 -34 5 0 1 9 -9 20 -18 20 -35 26 -35 14z"/>
<path d="M7682 4618 c1 -13 -4 -41 -10 -63 -12 -40 -16 -113 -7 -103 3 3 10
32 16 64 5 33 13 74 16 92 4 20 2 32 -6 32 -6 0 -10 -10 -9 -22z"/>
<path d="M10165 4273 c-62 -69 -122 -115 -215 -166 l-32 -17 84 -83 c87 -84
128 -140 197 -268 l41 -74 0 343 c0 188 -1 342 -3 342 -1 0 -34 -34 -72 -77z"/>
<path d="M0 3503 l0 -508 25 30 c38 46 71 114 110 232 35 105 78 212 96 243 5
8 22 40 39 71 42 81 118 157 161 161 21 2 35 9 37 19 2 11 -25 24 -106 52
-115 39 -193 80 -276 144 -27 21 -58 44 -68 51 -17 13 -18 -6 -18 -495z"/>
<path d="M8645 3332 c0 -151 -3 -173 -24 -232 -35 -96 -64 -148 -118 -215 -67
-82 -83 -84 -83 -8 0 73 -31 196 -65 262 -15 28 -53 74 -84 104 -59 54 -184
127 -218 127 -11 0 -51 24 -89 53 -77 59 -104 73 -104 53 0 -26 130 -119 245
-175 92 -46 193 -146 233 -233 41 -88 55 -141 56 -225 0 -50 4 -73 13 -73 18
0 131 108 176 168 21 30 43 50 47 45 18 -18 124 -221 146 -278 7 -20 8 -20 11
1 8 42 -74 217 -130 281 -19 22 -19 23 4 105 19 66 23 106 23 194 -1 100 -16
198 -33 208 -3 2 -6 -71 -6 -162z"/>
<path d="M6514 3465 c22 -16 66 -20 66 -6 0 5 -14 11 -31 15 -47 9 -56 7 -35
-9z"/>
<path d="M2241 3334 c0 -11 3 -14 6 -6 3 7 2 16 -1 19 -3 4 -6 -2 -5 -13z"/>
<path d="M6278 3063 c12 -2 23 -10 24 -16 0 -7 2 -16 3 -22 2 -5 3 -14 4 -20
1 -5 9 2 17 18 19 36 13 44 -33 44 -21 0 -28 -2 -15 -4z"/>
<path d="M2366 2953 c-4 -9 -2 -21 4 -27 7 -7 10 -2 10 17 0 31 -5 34 -14 10z"/>
<path d="M7557 2889 c12 -12 25 -20 28 -17 3 3 -7 13 -22 23 l-28 17 22 -23z"/>
<path d="M7735 2830 c3 -5 8 -10 11 -10 2 0 4 5 4 10 0 6 -5 10 -11 10 -5 0
-7 -4 -4 -10z"/>
<path d="M0 2619 c0 -141 8 -178 25 -112 9 40 47 101 94 153 l40 45 -65 33
c-37 17 -72 32 -80 32 -11 0 -14 -29 -14 -151z"/>
<path d="M7880 2736 c0 -2 8 -10 18 -17 15 -13 16 -12 3 4 -13 16 -21 21 -21
13z"/>
<path d="M7490 2690 c-18 -6 -5 -8 45 -9 49 0 65 2 55 9 -18 11 -65 11 -100 0z"/>
<path d="M7941 2687 c2 -1 15 -11 29 -22 l25 -20 -19 23 c-11 12 -24 22 -29
22 -6 0 -8 -1 -6 -3z"/>
<path d="M828 2662 c-47 -49 -85 -82 -96 -82 -13 0 -77 -43 -135 -91 -18 -15
-42 -29 -53 -33 -12 -4 -29 -15 -39 -26 -10 -11 -21 -20 -25 -20 -10 0 -299
-168 -328 -191 -14 -10 -31 -19 -38 -19 -8 0 -14 -5 -14 -11 0 -7 -23 -33 -50
-58 l-51 -46 3 -174 3 -173 111 111 c98 97 117 122 158 204 25 52 46 99 46
105 0 6 6 15 14 19 16 10 46 66 46 87 0 17 57 76 73 76 44 0 407 286 407 320
0 18 -17 19 -32 2z"/>
<path d="M8790 2661 c0 -5 5 -13 10 -16 6 -3 10 -2 10 4 0 5 -4 13 -10 16 -5
3 -10 2 -10 -4z"/>
<path d="M2090 2609 c0 -5 5 -7 10 -4 6 3 10 8 10 11 0 2 -4 4 -10 4 -5 0 -10
-5 -10 -11z"/>
<path d="M1890 2510 c0 -5 5 -10 11 -10 5 0 7 5 4 10 -3 6 -8 10 -11 10 -2 0
-4 -4 -4 -10z"/>
<path d="M8636 2468 c15 -26 134 -175 149 -188 8 -7 18 -10 21 -7 4 3 -33 51
-80 106 -79 92 -109 122 -90 89z"/>
<path d="M8950 2468 c0 -7 13 -72 28 -145 22 -103 25 -133 15 -137 -7 -3 -15
-1 -18 4 -4 6 -13 10 -22 10 -28 0 6 -29 49 -42 22 -6 42 -17 45 -24 2 -6 12
-10 21 -7 12 3 32 -16 66 -63 27 -37 59 -76 70 -88 12 -12 48 -51 82 -87 89
-94 197 -182 284 -233 105 -60 250 -126 315 -142 39 -10 75 -22 81 -26 6 -4
16 -34 23 -65 25 -119 43 -189 61 -228 10 -22 37 -84 59 -138 23 -54 55 -124
71 -155 16 -31 34 -70 41 -87 l13 -30 4 38 c2 24 -6 61 -23 105 -28 70 -32 79
-89 208 -44 99 -127 336 -121 343 3 2 57 3 120 2 92 -2 115 0 115 11 0 11 -23
14 -112 12 -114 -1 -155 6 -303 54 -232 76 -429 222 -635 472 -34 41 -76 91
-93 110 -52 61 -76 115 -122 283 -15 53 -25 73 -25 45z"/>
<path d="M8880 2226 c0 -2 7 -7 16 -10 8 -3 12 -2 9 4 -6 10 -25 14 -25 6z"/>
<path d="M10108 2080 c29 -16 69 -34 89 -41 34 -11 35 -12 17 -26 -12 -9 -15
-16 -8 -21 6 -4 14 -16 19 -27 8 -16 10 -12 13 24 2 24 -1 48 -6 53 -8 8 -160
68 -172 68 -3 0 19 -13 48 -30z"/>
<path d="M8992 1953 c-49 -96 -51 -105 -17 -65 14 17 25 35 25 40 0 6 9 27 21
46 11 20 19 41 16 48 -2 7 -23 -24 -45 -69z"/>
<path d="M730 1835 c0 -8 4 -15 10 -15 5 0 7 7 4 15 -4 8 -8 15 -10 15 -2 0
-4 -7 -4 -15z"/>
<path d="M307 1784 c-26 -22 -26 -24 -8 -24 12 0 21 6 21 14 0 8 6 16 13 19 6
2 10 7 7 10 -3 3 -18 -6 -33 -19z"/>
<path d="M8280 1770 c0 -6 17 -10 37 -10 43 0 41 5 -4 13 -19 4 -33 2 -33 -3z"/>
<path d="M8292 1731 c2 -7 7 -12 11 -12 12 1 9 15 -3 20 -7 2 -11 -2 -8 -8z"/>
<path d="M8350 1701 c0 -12 5 -21 10 -21 6 0 10 6 10 14 0 8 -4 18 -10 21 -5
3 -10 -3 -10 -14z"/>
<path d="M145 1680 c-3 -5 1 -10 9 -10 9 0 16 5 16 10 0 6 -4 10 -9 10 -6 0
-13 -4 -16 -10z"/>
<path d="M8320 1580 c0 -5 5 -10 10 -10 6 0 10 5 10 10 0 6 -4 10 -10 10 -5 0
-10 -4 -10 -10z"/>
<path d="M385 1530 c3 -5 17 -10 31 -10 14 0 22 4 19 10 -3 6 -17 10 -31 10
-14 0 -22 -4 -19 -10z"/>
<path d="M440 1491 c0 -5 6 -13 13 -19 10 -8 13 -6 13 9 0 10 -6 19 -13 19 -7
0 -13 -4 -13 -9z"/>
<path d="M611 1464 c0 -11 3 -14 6 -6 3 7 2 16 -1 19 -3 4 -6 -2 -5 -13z"/>
<path d="M9195 1411 c-14 -28 -21 -51 -16 -51 5 0 12 11 15 24 13 51 38 39 99
-48 20 -29 37 -34 37 -11 0 8 -7 15 -15 15 -9 0 -33 27 -55 61 l-39 60 -26
-50z"/>
<path d="M8453 1395 c0 -33 2 -45 4 -27 2 18 2 45 0 60 -2 15 -4 0 -4 -33z"/>
<path d="M480 1420 c19 -13 30 -13 30 0 0 6 -10 10 -22 10 -19 0 -20 -2 -8
-10z"/>
<path d="M585 1351 c-3 -5 -1 -12 5 -16 5 -3 10 1 10 9 0 18 -6 21 -15 7z"/>
<path d="M9472 1349 c43 -4 94 -16 114 -25 38 -18 139 -111 167 -154 16 -25
16 -24 4 9 -14 38 -129 147 -178 168 -18 7 -64 12 -108 12 l-76 -2 77 -8z"/>
<path d="M578 1303 c7 -3 16 -2 19 1 4 3 -2 6 -13 5 -11 0 -14 -3 -6 -6z"/>
<path d="M530 1161 c0 -5 7 -11 14 -14 10 -4 13 -1 9 9 -6 15 -23 19 -23 5z"/>
<path d="M9776 1010 c-5 -25 -22 -72 -37 -104 -34 -70 -33 -66 -13 -66 9 0 14
-7 12 -17 -4 -22 -34 -24 -30 -3 3 19 -45 -38 -51 -61 -4 -14 2 -13 31 7 19
13 43 24 52 24 14 0 18 10 19 55 0 30 8 72 17 94 8 21 14 56 12 77 l-3 39 -9
-45z"/>
<path d="M5360 980 c0 -29 3 -50 7 -46 7 7 5 87 -3 95 -2 2 -4 -20 -4 -49z"/>
<path d="M5590 978 c0 -19 -3 -38 -7 -41 -3 -4 -8 -20 -10 -37 -2 -24 1 -30
15 -30 17 0 19 8 17 65 -3 68 -15 105 -15 43z"/>
<path d="M4247 993 c-4 -3 -7 -13 -7 -22 1 -13 3 -13 11 2 11 19 8 33 -4 20z"/>
<path d="M5424 935 c-18 -14 -18 -14 3 -15 23 0 39 15 25 24 -5 3 -18 -1 -28
-9z"/>
<path d="M5360 879 c0 -5 5 -7 10 -4 6 3 10 8 10 11 0 2 -4 4 -10 4 -5 0 -10
-5 -10 -11z"/>
<path d="M5417 789 c2 -104 13 -154 13 -58 0 30 3 78 6 107 5 41 4 52 -7 52
-11 0 -14 -21 -12 -101z"/>
<path d="M5360 724 c0 -14 4 -23 10 -19 6 3 10 15 10 26 0 10 -4 19 -10 19 -5
0 -10 -12 -10 -26z"/>
<path d="M4196 731 c-4 -7 -5 -15 -2 -18 9 -9 19 4 14 18 -4 11 -6 11 -12 0z"/>
<path d="M4171 644 c0 -11 3 -14 6 -6 3 7 2 16 -1 19 -3 4 -6 -2 -5 -13z"/>
<path d="M10100 624 c-6 -14 -19 -28 -30 -31 -17 -5 -20 -14 -19 -57 0 -28 4
-60 9 -71 6 -17 9 -13 15 20 3 22 14 60 24 85 16 41 21 46 57 51 28 5 32 7 12
8 -15 0 -30 6 -33 11 -11 17 -25 11 -35 -16z"/>
<path d="M5372 548 c5 -15 28 -23 28 -10 0 5 -7 13 -16 16 -10 4 -14 1 -12 -6z"/>
<path d="M4410 370 c0 -13 7 -20 20 -20 13 0 20 7 20 20 0 13 -7 20 -20 20
-13 0 -20 -7 -20 -20z"/>
<path d="M5802 107 c-7 -18 -12 -50 -12 -70 0 -36 1 -37 36 -37 30 0 34 2 25
14 -7 9 -8 17 -3 20 12 7 -9 98 -24 103 -5 2 -15 -12 -22 -30z"/>
<path d="M4507 35 c-49 -13 -91 -26 -94 -29 -4 -3 53 -6 125 -6 73 0 132 2
132 4 0 3 -4 16 -10 30 -12 32 -33 32 -153 1z"/>
</g>
</svg>
